<svg xmlns="http://www.w3.org/2000/svg" xmlns:xlink="http://www.w3.org/1999/xlink" xmlns:inkscape="http://www.inkscape.org/namespaces/inkscape" version="1.1" width="187.087" height="272.126" viewBox="0.000 0.000 187.087 272.126"><defs><clipPath id="ruleyellowevenhigh_clip_1"><path transform="matrix(1,0,0,-1,0,272.13)" d="M0 0H187.09V272.13H0Z"/></clipPath><path id="ruleyellowevenhigh_font_2_698" d="M.5279999 .47999574C.5153351 .5033315 .49716697 .52116397 .47349549 .53349307 .4498342 .54583236 .42200218 .55200198 .3899994 .55200198 .33467103 .55200198 .29033915 .5338338 .25700379 .49749757 .22366841 .4611613 .20700073 .4126638 .20700073 .352005 .20700073 .28733827 .22449748 .23683675 .25949098 .20050049 .29449464 .16416423 .34266664 .1459961 .40400697 .1459961 .44599916 .1459961 .48149619 .15666199 .51049807 .17799378 .53949996 .19933574 .56066897 .2300059 .5740051 .27000428H.35699464V.3959961H.7290039V.23699951C.7163391 .19433594 .6948395 .15466817 .664505 .117996219 .63417056 .081334438 .59566757 .05166626 .548996 .0289917 .5023346 .006327311 .44967143-.005004883 .39100648-.005004883 .32167054-.005004883 .25983177 .0101623539 .20549011 .040496828 .15115865 .0708313 .10882568 .11299642 .07849121 .16699219 .048166913 .22099813 .03300476 .28266908 .03300476 .352005 .03300476 .42133079 .048166913 .4831594 .07849121 .53749087 .10882568 .59183248 .1509908 .63417056 .20498657 .664505 .25899253 .6948395 .32066346 .7100067 .3899994 .7100067 .47400413 .7100067 .5448354 .6896718 .6024933 .6490021 .6601613 .60833236 .6983287 .5519969 .71699526 .47999574H.5279999Z"/><path id="ruleyellowevenhigh_font_2_728" d="M.58799746 .28799439C.58799746 .27200318 .58700057 .25534059 .5850067 .23800659H.19799805C.20066326 .20333863 .21182759 .1768341 .23149109 .15849304 .25116477 .14016216 .2753347 .1309967 .30400086 .1309967 .34666444 .1309967 .3763326 .148997 .39300538 .18499756H.57499697C.56566879 .14833577 .5488383 .1153361 .5245056 .085998538 .5001729 .056671144 .46967063 .033671064 .43299867 .016998291 .39633689 .00033569337 .35533653-.0079956059 .30999757-.0079956059 .2553304-.0079956059 .20666504 .0036671956 .16400147 .026992798 .12133789 .05032857 .088002528 .08366394 .06399536 .1269989 .03999837 .17033386 .027999878 .22100322 .027999878 .27900697 .027999878 .33700053 .039830526 .3876648 .06349182 .43099977 .08716329 .47433473 .12033081 .507665 .16299439 .5309906 .20566814 .55432638 .2546692 .56599429 .30999757 .56599429 .3640035 .56599429 .41200257 .55466207 .45399476 .5319977 .4959971 .5093333 .5288289 .4769999 .55249026 .43499757 .5761617 .3929952 .58799746 .34399415 .58799746 .28799439M.41299439 .33299256C.41299439 .3623301 .40299479 .3856659 .3829956 .40299989 .36299644 .42033387 .33799745 .42900086 .30799867 .42900086 .2793325 .42900086 .25516258 .42066447 .23548889 .4039917 .2158254 .3873291 .20366414 .36366273 .19900513 .33299256H.41299439Z"/><path id="ruleyellowevenhigh_font_2_741" d="M.23300171 .46499635C.2530009 .4956665 .27799989 .51983138 .30799867 .53749087 .33799745 .5551605 .3713328 .56399539 .40800477 .56399539V.3829956H.36099244C.31832887 .3829956 .28633119 .37383018 .2649994 .35549928 .2436676 .33716838 .23300171 .30500285 .23300171 .2590027V0H.06199646V.55799868H.23300171V.46499635Z"/><path id="ruleyellowevenhigh_font_2_724" d="M.027999878 .27999879C.027999878 .33733116 .03883362 .3876648 .0605011 .43099977 .08216858 .47433473 .11166891 .507665 .14900208 .5309906 .18633525 .55432638 .22800191 .56599429 .27400209 .56599429 .31332908 .56599429 .3478241 .5579936 .37748719 .5419922 .40716044 .526001 .42999778 .5050049 .44599916 .4790039V.55799868H.6170044V0H.44599916V.07899475C.42933656 .052993776 .4061686 .031992597 .37649537 .015991211 .34683229 0 .31233216-.0079956059 .272995-.0079956059 .22766622-.0079956059 .18633525 .0038350423 .14900208 .027496338 .11166891 .051167806 .08216858 .08483378 .0605011 .12849427 .03883362 .17216492 .027999878 .22266643 .027999878 .27999879M.44599916 .27900697C.44599916 .32167054 .43416343 .35533653 .41049195 .38000489 .38683067 .40467326 .3580017 .41700746 .32400514 .41700746 .28999839 .41700746 .26115928 .40483604 .2374878 .38049317 .21382649 .3561605 .20199585 .32266236 .20199585 .27999879 .20199585 .2373352 .21382649 .20350139 .2374878 .17849732 .26115928 .15350342 .28999839 .14100647 .32400514 .14100647 .3580017 .14100647 .38683067 .15333557 .41049195 .17799378 .43416343 .20266216 .44599916 .2363332 .44599916 .27900697Z"/><path id="ruleyellowevenhigh_font_2_727" d="M.027999878 .27999879C.027999878 .33733116 .03883362 .3876648 .0605011 .43099977 .08216858 .47433473 .11166891 .507665 .14900208 .5309906 .18633525 .55432638 .22800191 .56599429 .27400209 .56599429 .31066386 .56599429 .344162 .5583293 .37449647 .54299929 .40483094 .52766928 .42866517 .5070038 .44599916 .4810028V.7400055H.6170044V0H.44599916V.08000183C.42999778 .053329469 .40716044 .031992597 .37748719 .015991211 .3478241 0 .31332908-.0079956059 .27400209-.0079956059 .22800191-.0079956059 .18633525 .0038350423 .14900208 .027496338 .11166891 .051167806 .08216858 .08483378 .0605011 .12849427 .03883362 .17216492 .027999878 .22266643 .027999878 .27999879M.44599916 .27900697C.44599916 .32167054 .43416343 .35533653 .41049195 .38000489 .38683067 .40467326 .3580017 .41700746 .32400514 .41700746 .28999839 .41700746 .26115928 .40483604 .2374878 .38049317 .21382649 .3561605 .20199585 .32266236 .20199585 .27999879 .20199585 .2373352 .21382649 .20350139 .2374878 .17849732 .26115928 .15350342 .28999839 .14100647 .32400514 .14100647 .3580017 .14100647 .38683067 .15333557 .41049195 .17799378 .43416343 .20266216 .44599916 .2363332 .44599916 .27900697Z"/><path id="ruleyellowevenhigh_font_2_3" d=""/><path id="ruleyellowevenhigh_font_2_699" d="M.66999819 .70199587V0H.49899293V.28900147H.23300171V0H.06199646V.70199587H.23300171V.42700196H.49899293V.70199587H.66999819Z"/><path id="ruleyellowevenhigh_font_2_738" d="M.31599427-.0079956059C.26132713-.0079956059 .2121582 .0036671956 .16848755 .026992798 .124827068 .05032857 .09049479 .08366394 .06549072 .1269989 .040496828 .17033386 .027999878 .22100322 .027999878 .27900697 .027999878 .33633933 .040664674 .38683573 .06599426 .43049623 .09133402 .47416688 .126002 .507665 .16999817 .5309906 .21399434 .55432638 .26332603 .56599429 .31799317 .56599429 .3726603 .56599429 .42199198 .55432638 .46598817 .5309906 .5099945 .507665 .5446625 .47416688 .56999209 .43049623 .59533187 .38683573 .6080017 .33633933 .6080017 .27900697 .6080017 .22166443 .59516909 .17115784 .5695038 .12748719 .5438385 .0838267 .50883486 .05032857 .4644928 .026992798 .42016093 .0036671956 .3706614-.0079956059 .31599427-.0079956059M.31599427 .13999939C.34866844 .13999939 .37650553 .15199788 .39950563 .17599488 .4225057 .20000203 .43400575 .2343394 .43400575 .27900697 .43400575 .32366435 .4228363 .35799156 .40049745 .38198854 .37816874 .4059957 .35066734 .41799928 .31799317 .41799928 .28466798 .41799928 .25700379 .40616355 .23500061 .38249208 .21299744 .35883079 .20199585 .32433573 .20199585 .27900697 .20199585 .2343394 .21282959 .20000203 .23449707 .17599488 .25616456 .15199788 .2833303 .13999939 .31599427 .13999939Z"/><path id="ruleyellowevenhigh_font_2_731" d="M.40499879 .56399539C.4690043 .56399539 .52033999 .54282638 .55900576 .5004883 .5976715 .4581604 .6170044 .399999 .6170044 .32600404V0H.44700624V.30299378C.44700624 .34032694 .43733726 .36932884 .41799928 .3899994 .39867149 .41066996 .3726705 .42100526 .33999635 .42100526 .30733238 .42100526 .2813314 .41066996 .2619934 .3899994 .2426656 .36932884 .23300171 .34032694 .23300171 .30299378V0H.06199646V.7400055H.23300171V.4830017C.2503357 .5076701 .27400209 .52733358 .30400086 .5419922 .33399964 .55666097 .36766563 .56399539 .40499879 .56399539Z"/><path id="ruleyellowevenhigh_font_2_717" d="M.2440033 .13999939H.54600527V0H.05000305V.13000489L.3500061 .56199648H.05000305V.70199587H.54600527V.5720062L.2440033 .13999939Z"/><path id="ruleyellowevenhigh_font_2_735" d="M.23300171 .7400055V0H.06199646V.7400055H.23300171Z"/><path id="ruleyellowevenhigh_font_2_737" d="M.4019928 .56399539C.46733094 .56399539 .51950076 .54282638 .5585022 .5004883 .59750369 .4581604 .6170044 .399999 .6170044 .32600404V0H.44700624V.30299378C.44700624 .34032694 .43733726 .36932884 .41799928 .3899994 .39867149 .41066996 .3726705 .42100526 .33999635 .42100526 .30733238 .42100526 .2813314 .41066996 .2619934 .3899994 .2426656 .36932884 .23300171 .34032694 .23300171 .30299378V0H.06199646V.55799868H.23300171V.48399354C.2503357 .5086619 .27366639 .52816268 .30299378 .5424957 .33233134 .5568288 .36533103 .56399539 .4019928 .56399539Z"/><clipPath id="ruleyellowevenhigh_clip_3"><path transform="matrix(1,0,0,-1,0,272.13)" d="M0 0H187.09V272.13H0Z"/></clipPath><clipPath id="ruleyellowevenhigh_clip_4"><path transform="matrix(1,0,0,-1,0,272.13)" d="M0 0H187.09V272.13H0Z"/></clipPath><clipPath id="ruleyellowevenhigh_clip_5"><path transform="matrix(1,0,0,-1,0,272.13)" d="M0 0H187.09V272.13H0Z"/></clipPath></defs><g clip-path="url(#ruleyellowevenhigh_clip_1)"><path transform="matrix(1,0,0,-1,0,272.13)" d="M0 136.06H187.09V272.13H0Z" fill="#f9ab2c"/><path transform="matrix(1,0,0,-1,68.83,135)" d="M0 0-5.58-17.7-60.33-.439-54.74 17.26Z" fill="#f9ab2c"/><path transform="matrix(1,0,0,-1,118.26,135.88)" d="M0 0 5.58 17.7 60.33 .439 54.75-17.26Z" fill="#f9ab2c"/><path transform="matrix(1,0,0,-1,0,272.13)" d="M.008 .5H186.59V174.11H.008Z" fill="#f9ab2c"/></g><use data-text="G" xlink:href="#ruleyellowevenhigh_font_2_698" transform="matrix(9,0,0,-9,46.76,249.45)" fill="#ffffff"/><use data-text="e" xlink:href="#ruleyellowevenhigh_font_2_728" transform="matrix(9,0,0,-9,53.62,249.45)" fill="#ffffff"/><use data-text="r" xlink:href="#ruleyellowevenhigh_font_2_741" transform="matrix(9,0,0,-9,59.16,249.45)" fill="#ffffff"/><use data-text="a" xlink:href="#ruleyellowevenhigh_font_2_724" transform="matrix(9,0,0,-9,63.02,249.45)" fill="#ffffff"/><use data-text="d" xlink:href="#ruleyellowevenhigh_font_2_727" transform="matrix(9,0,0,-9,69.13,249.45)" fill="#ffffff"/><use data-text="e" xlink:href="#ruleyellowevenhigh_font_2_728" transform="matrix(9,0,0,-9,75.24,249.45)" fill="#ffffff"/><use data-text=" " xlink:href="#ruleyellowevenhigh_font_2_3" transform="matrix(9,0,0,-9,80.78,249.45)" fill="#ffffff"/><use data-text="H" xlink:href="#ruleyellowevenhigh_font_2_699" transform="matrix(9,0,0,-9,82.69,249.45)" fill="#ffffff"/><use data-text="o" xlink:href="#ruleyellowevenhigh_font_2_738" transform="matrix(9,0,0,-9,89.27,249.45)" fill="#ffffff"/><use data-text="h" xlink:href="#ruleyellowevenhigh_font_2_731" transform="matrix(9,0,0,-9,95,249.45)" fill="#ffffff"/><use data-text="e" xlink:href="#ruleyellowevenhigh_font_2_728" transform="matrix(9,0,0,-9,101.07,249.45)" fill="#ffffff"/><use data-text=" " xlink:href="#ruleyellowevenhigh_font_2_3" transform="matrix(9,0,0,-9,106.61,249.45)" fill="#ffffff"/><use data-text="Z" xlink:href="#ruleyellowevenhigh_font_2_717" transform="matrix(9,0,0,-9,108.52,249.45)" fill="#ffffff"/><use data-text="a" xlink:href="#ruleyellowevenhigh_font_2_724" transform="matrix(9,0,0,-9,113.88,249.45)" fill="#ffffff"/><use data-text="h" xlink:href="#ruleyellowevenhigh_font_2_731" transform="matrix(9,0,0,-9,119.99,249.45)" fill="#ffffff"/><use data-text="l" xlink:href="#ruleyellowevenhigh_font_2_735" transform="matrix(9,0,0,-9,126.06,249.45)" fill="#ffffff"/><use data-text="e" xlink:href="#ruleyellowevenhigh_font_2_728" transform="matrix(9,0,0,-9,128.72,249.45)" fill="#ffffff"/><use data-text="n" xlink:href="#ruleyellowevenhigh_font_2_737" transform="matrix(9,0,0,-9,134.26,249.45)" fill="#ffffff"/><g clip-path="url(#ruleyellowevenhigh_clip_3)"><path transform="matrix(1,0,0,-1,120.05,226.52)" d="M0 0C-1.96 0-3.54 1.59-3.54 3.54V43.41C-3.54 45.37-1.96 46.95 0 46.95H7.3C9.25 46.95 10.84 45.37 10.84 43.41V3.54C10.84 1.59 9.25 0 7.3 0Z"/><path transform="matrix(1,0,0,-1,125.63,163.3)" d="M0 0C-1.07 1.64-2.8 1.64-3.87 0L-21.82-27.47C-22.89-29.11-22.17-30.44-20.21-30.44H16.34C18.29-30.44 19.01-29.11 17.94-27.47Z"/><path transform="matrix(1,0,0,-1,83.12,206.79)" d="M0 0-1.17-6.67C-1.42-8.12-2.68-9.17-4.15-9.17H-44.29C-46.17-9.17-47.6-7.47-47.28-5.62L-46.11 1.05C-45.85 2.5-44.6 3.55-43.12 3.55H-2.98C-1.1 3.55 .325 1.86 0 0M3.78 21.06 2.56 14.39C2.3 12.95 1.05 11.9-.419 11.9H-40.63C-42.52 11.9-43.95 13.62-43.61 15.48L-42.4 22.15C-42.14 23.59-40.88 24.63-39.42 24.63H.794C2.69 24.63 4.11 22.92 3.78 21.06"/></g><g clip-path="url(#ruleyellowevenhigh_clip_4)"><path transform="matrix(1,0,0,-1,187.11,2.07)" stroke-width="2" stroke-linecap="butt" stroke-miterlimit="10" stroke-linejoin="miter" fill="none" stroke="#000000" d="M0 0V-132.59C0-133.58-.798-134.38-1.78-134.38H-38.61C-38.89-134.38-39.16-134.31-39.41-134.19L-81.16-118.27C-82.04-117.82-83.11-118.18-83.55-119.06L-93.69-134.38-103.82-148.97C-104.26-149.85-105.33-150.21-106.21-149.77L-147.96-134.57C-148.21-134.44-148.48-134.38-148.76-134.38H-185.35C-186.33-134.38-187.13-133.58-187.13-132.59V0C-187.13 .984-186.33 1.78-185.35 1.78H-1.78C-.798 1.78 0 .984 0 0Z"/></g><g clip-path="url(#ruleyellowevenhigh_clip_5)"><path transform="matrix(1,0,0,-1,59.82,45.6)" d="M0 0C1.96 0 3.54-1.59 3.54-3.54V-43.41C3.54-45.37 1.96-46.95 0-46.95H-7.29C-9.25-46.95-10.84-45.37-10.84-43.41V-3.54C-10.84-1.59-9.25 0-7.29 0Z"/><path transform="matrix(1,0,0,-1,54.24,108.83)" d="M0 0C1.07-1.64 2.81-1.64 3.88 0L21.82 27.47C22.89 29.11 22.17 30.44 20.21 30.44H-16.34C-18.29 30.44-19.01 29.11-17.94 27.47Z"/><path transform="matrix(1,0,0,-1,147.46,83.82)" d="M0 0-1.17-6.67C-1.42-8.12-2.68-9.17-4.15-9.17H-44.29C-46.17-9.17-47.6-7.47-47.28-5.62L-46.11 1.05C-45.85 2.5-44.6 3.55-43.12 3.55H-2.98C-1.1 3.55 .325 1.86 0 0M3.78 21.06 2.56 14.39C2.3 12.95 1.05 11.9-.419 11.9H-40.63C-42.52 11.9-43.95 13.62-43.61 15.48L-42.4 22.15C-42.14 23.59-40.88 24.63-39.42 24.63H.794C2.69 24.63 4.11 22.92 3.78 21.06"/></g><use data-text="G" xlink:href="#ruleyellowevenhigh_font_2_698" transform="matrix(-9,-0,0,9,140.32,22.68)" fill="#ffffff"/><use data-text="e" xlink:href="#ruleyellowevenhigh_font_2_728" transform="matrix(-9,-0,0,9,133.47,22.68)" fill="#ffffff"/><use data-text="r" xlink:href="#ruleyellowevenhigh_font_2_741" transform="matrix(-9,-0,0,9,127.92,22.68)" fill="#ffffff"/><use data-text="a" xlink:href="#ruleyellowevenhigh_font_2_724" transform="matrix(-9,-0,0,9,124.07,22.68)" fill="#ffffff"/><use data-text="d" xlink:href="#ruleyellowevenhigh_font_2_727" transform="matrix(-9,-0,0,9,117.96,22.68)" fill="#ffffff"/><use data-text="e" xlink:href="#ruleyellowevenhigh_font_2_728" transform="matrix(-9,-0,0,9,111.85,22.68)" fill="#ffffff"/><use data-text=" " xlink:href="#ruleyellowevenhigh_font_2_3" transform="matrix(-9,-0,0,9,106.3,22.68)" fill="#ffffff"/><use data-text="H" xlink:href="#ruleyellowevenhigh_font_2_699" transform="matrix(-9,-0,0,9,104.4,22.68)" fill="#ffffff"/><use data-text="o" xlink:href="#ruleyellowevenhigh_font_2_738" transform="matrix(-9,-0,0,9,97.82,22.68)" fill="#ffffff"/><use data-text="h" xlink:href="#ruleyellowevenhigh_font_2_731" transform="matrix(-9,-0,0,9,92.08,22.68)" fill="#ffffff"/><use data-text="e" xlink:href="#ruleyellowevenhigh_font_2_728" transform="matrix(-9,-0,0,9,86.02,22.68)" fill="#ffffff"/><use data-text=" " xlink:href="#ruleyellowevenhigh_font_2_3" transform="matrix(-9,-0,0,9,80.47,22.68)" fill="#ffffff"/><use data-text="Z" xlink:href="#ruleyellowevenhigh_font_2_717" transform="matrix(-9,-0,0,9,78.57,22.68)" fill="#ffffff"/><use data-text="a" xlink:href="#ruleyellowevenhigh_font_2_724" transform="matrix(-9,-0,0,9,73.2,22.68)" fill="#ffffff"/><use data-text="h" xlink:href="#ruleyellowevenhigh_font_2_731" transform="matrix(-9,-0,0,9,67.09,22.68)" fill="#ffffff"/><use data-text="l" xlink:href="#ruleyellowevenhigh_font_2_735" transform="matrix(-9,-0,0,9,61.03,22.68)" fill="#ffffff"/><use data-text="e" xlink:href="#ruleyellowevenhigh_font_2_728" transform="matrix(-9,-0,0,9,58.37,22.68)" fill="#ffffff"/><use data-text="n" xlink:href="#ruleyellowevenhigh_font_2_737" transform="matrix(-9,-0,0,9,52.83,22.68)" fill="#ffffff"/></svg>